<svg width="40" height="40" viewBox="0 0 200 200" fill="none" xmlns="http://www.w3.org/2000/svg">
<path d="M199.469 99.7344C199.469 154.797 154.797 199.469 99.7344 199.469C44.6719 199.469 0 154.797 0 99.7344C0 44.6719 44.6719 0 99.7344 0C154.797 0 199.469 44.6719 199.469 99.7344ZM7.97917 99.7344C7.97917 150.391 49.0781 191.49 99.7344 191.49C150.391 191.49 191.49 150.391 191.49 99.7344C191.49 49.0781 150.391 7.97917 99.7344 7.97917C49.0781 7.97917 7.97917 49.0781 7.97917 99.7344ZM131.734 102.557L86.6042 147.688C85.0208 149.224 82.5313 149.224 80.9531 147.688L75.2969 142.036C73.7604 140.5 73.7604 137.964 75.2969 136.385L111.995 99.7344L75.2969 63.0833C73.7604 61.5 73.7604 58.9688 75.2969 57.4271L80.9531 51.776C82.5313 50.2396 85.0208 50.2396 86.6042 51.776L131.734 96.9063C133.313 98.4844 133.313 100.979 131.734 102.557Z" fill="white"/>
</svg>
